PathFileType	4	(X/Y/Z)	C:\Users\italobelli\Desktop\GitHub\PTbot_officialCBL\Personal_Results\ABD01_noisy1.trc
DataRate	CameraRate	NumFrames	NumMarkers	Units	OrigDataRate	OrigDataStartFrame	OrigNumFrames
104.666667	104.666667	34	9	m	104.666667	963	1100
Frame#	Time		gu		centelbow		EpL		centpxt8		centijc7		ij		ts		aa		ai
			X1	Y1	Z1	X2	Y2	Z2	X3	Y3	Z3	X4	Y4	Z4	X5	Y5	Z5	X6	Y6	Z6	X7	Y7	Z7	X8	Y8	Z8	X9	Y9	Z9

963	9.1911	-0.1056	0.0039216	0.16162	-0.14738	-0.21867	0.23181	-0.15191	-0.20678	0.26015	-0.046816	-0.15316	-0.008669	-0.046816	0.031938	-0.008669	0	0	0	-0.12744	0.027783	0.031565	-0.1382	0.037552	0.15008	-0.13663	-0.084797	0.045477
964	9.2006	-0.10556	0.0037436	0.16173	-0.14763	-0.21947	0.22961	-0.15186	-0.20788	0.25814	-0.046816	-0.15316	-0.008669	-0.046816	0.031938	-0.008669	0	0	0	-0.12746	0.027984	0.031719	-0.13805	0.037498	0.15027	-0.1368	-0.08461	0.045391
965	9.2102	-0.10552	0.0035695	0.16185	-0.14787	-0.22026	0.22743	-0.1518	-0.20895	0.25614	-0.046816	-0.15316	-0.008669	-0.046816	0.031938	-0.008669	0	0	0	-0.12749	0.028183	0.031871	-0.13789	0.037446	0.15045	-0.13697	-0.084422	0.045306
966	9.2197	-0.10547	0.0033993	0.16196	-0.1481	-0.22102	0.22527	-0.15173	-0.21	0.25415	-0.046816	-0.15316	-0.008669	-0.046816	0.031938	-0.008669	0	0	0	-0.12751	0.028379	0.032022	-0.13772	0.037394	0.15064	-0.13714	-0.084236	0.045223
967	9.2293	-0.10543	0.0032331	0.16207	-0.14833	-0.22176	0.22314	-0.15167	-0.21102	0.25218	-0.046816	-0.15316	-0.008669	-0.046816	0.031938	-0.008669	0	0	0	-0.12753	0.028573	0.03217	-0.13756	0.037345	0.15082	-0.1373	-0.08405	0.045141
968	9.2389	-0.10539	0.003071	0.16218	-0.14855	-0.22248	0.22103	-0.15161	-0.21201	0.25024	-0.046816	-0.15316	-0.008669	-0.046816	0.031938	-0.008669	0	0	0	-0.12756	0.028764	0.032317	-0.1374	0.037296	0.15099	-0.13746	-0.083866	0.045062
969	9.2484	-0.10535	0.002913	0.16228	-0.14877	-0.22317	0.21895	-0.15154	-0.21298	0.24833	-0.046816	-0.15316	-0.008669	-0.046816	0.031938	-0.008669	0	0	0	-0.12758	0.028952	0.032461	-0.13723	0.03725	0.15117	-0.13762	-0.083683	0.044985
970	9.258	-0.1053	0.0027594	0.16239	-0.14898	-0.22385	0.21691	-0.15147	-0.21391	0.24644	-0.046816	-0.15316	-0.008669	-0.046816	0.031938	-0.008669	0	0	0	-0.1276	0.029136	0.032603	-0.13706	0.037204	0.15134	-0.13777	-0.083501	0.044909
971	9.2675	-0.10526	0.0026101	0.16249	-0.14918	-0.2245	0.21491	-0.1514	-0.21482	0.24459	-0.046816	-0.15316	-0.008669	-0.046816	0.031938	-0.008669	0	0	0	-0.12763	0.029317	0.032742	-0.1369	0.03716	0.1515	-0.13793	-0.083322	0.044836
972	9.2771	-0.10522	0.0024654	0.16258	-0.14937	-0.22512	0.21294	-0.15133	-0.21569	0.24277	-0.046816	-0.15316	-0.008669	-0.046816	0.031938	-0.008669	0	0	0	-0.12765	0.029494	0.032878	-0.13673	0.037118	0.15166	-0.13808	-0.083146	0.044764
973	9.2866	-0.10518	0.0023251	0.16268	-0.14956	-0.22573	0.21102	-0.15126	-0.21654	0.24099	-0.046816	-0.15316	-0.008669	-0.046816	0.031938	-0.008669	0	0	0	-0.12767	0.029666	0.03301	-0.13657	0.037078	0.15182	-0.13823	-0.082972	0.044695
974	9.2962	-0.10514	0.0021896	0.16276	-0.14973	-0.22631	0.20914	-0.15119	-0.21736	0.23925	-0.046816	-0.15316	-0.008669	-0.046816	0.031938	-0.008669	0	0	0	-0.12769	0.029835	0.03314	-0.13641	0.037038	0.15197	-0.13837	-0.082801	0.044627
975	9.3057	-0.1051	0.0020588	0.16285	-0.1499	-0.22687	0.20732	-0.15111	-0.21815	0.23756	-0.046816	-0.15316	-0.008669	-0.046816	0.031938	-0.008669	0	0	0	-0.12772	0.029998	0.033265	-0.13625	0.037001	0.15212	-0.13852	-0.082634	0.044561
976	9.3153	-0.10506	0.0019328	0.16293	-0.15007	-0.22741	0.20555	-0.15104	-0.2189	0.23592	-0.046816	-0.15316	-0.008669	-0.046816	0.031938	-0.008669	0	0	0	-0.12774	0.030157	0.033387	-0.13609	0.036965	0.15226	-0.13866	-0.082471	0.044497
977	9.3248	-0.10502	0.0018118	0.16301	-0.15022	-0.22792	0.20384	-0.15097	-0.21962	0.23433	-0.046816	-0.15316	-0.008669	-0.046816	0.031938	-0.008669	0	0	0	-0.12776	0.030311	0.033505	-0.13594	0.036931	0.1524	-0.13879	-0.082311	0.044436
978	9.3344	-0.10498	0.0016958	0.16309	-0.15037	-0.2284	0.20219	-0.15089	-0.22032	0.23279	-0.046816	-0.15316	-0.008669	-0.046816	0.031938	-0.008669	0	0	0	-0.12778	0.03046	0.033618	-0.13579	0.036898	0.15253	-0.13892	-0.082156	0.044376
979	9.3439	-0.10494	0.001585	0.16316	-0.1505	-0.22887	0.2006	-0.15082	-0.22098	0.23131	-0.046816	-0.15316	-0.008669	-0.046816	0.031938	-0.008669	0	0	0	-0.1278	0.030603	0.033727	-0.13565	0.036867	0.15265	-0.13905	-0.082007	0.044318
980	9.3535	-0.10491	0.0014794	0.16323	-0.15063	-0.22931	0.19908	-0.15074	-0.2216	0.22989	-0.046816	-0.15316	-0.008669	-0.046816	0.031938	-0.008669	0	0	0	-0.12782	0.03074	0.033831	-0.13551	0.036838	0.15277	-0.13918	-0.081862	0.044262
981	9.3631	-0.10488	0.001379	0.16329	-0.15075	-0.22972	0.19763	-0.15066	-0.22219	0.22854	-0.046816	-0.15316	-0.008669	-0.046816	0.031938	-0.008669	0	0	0	-0.12784	0.030871	0.03393	-0.13537	0.03681	0.15288	-0.1393	-0.081722	0.044208
982	9.3726	-0.10484	0.0012841	0.16335	-0.15086	-0.23012	0.19625	-0.15059	-0.22275	0.22726	-0.046816	-0.15316	-0.008669	-0.046816	0.031938	-0.008669	0	0	0	-0.12786	0.030996	0.034024	-0.13524	0.036784	0.15299	-0.13942	-0.081589	0.044157
983	9.3822	-0.10481	0.0011947	0.1634	-0.15096	-0.23048	0.19495	-0.15051	-0.22328	0.22605	-0.046816	-0.15316	-0.008669	-0.046816	0.031938	-0.008669	0	0	0	-0.12788	0.031114	0.034112	-0.13511	0.03676	0.15309	-0.13954	-0.081461	0.044107
984	9.3917	-0.10479	0.0011109	0.16345	-0.15105	-0.23082	0.19373	-0.15044	-0.22377	0.22491	-0.046816	-0.15316	-0.008669	-0.046816	0.031938	-0.008669	0	0	0	-0.1279	0.031226	0.034195	-0.135	0.036738	0.15318	-0.13965	-0.08134	0.044059
985	9.4013	-0.10476	0.0010328	0.16349	-0.15113	-0.23114	0.1926	-0.15036	-0.22422	0.22385	-0.046816	-0.15316	-0.008669	-0.046816	0.031938	-0.008669	0	0	0	-0.12792	0.03133	0.034273	-0.13489	0.036717	0.15327	-0.13975	-0.081226	0.044013
986	9.4108	-0.10474	0.00096043	0.16353	-0.1512	-0.23143	0.19155	-0.15029	-0.22464	0.22287	-0.046816	-0.15316	-0.008669	-0.046816	0.031938	-0.008669	0	0	0	-0.12794	0.031427	0.034344	-0.13478	0.036698	0.15335	-0.13985	-0.081119	0.04397
987	9.4204	-0.10471	0.00089396	0.16357	-0.15126	-0.2317	0.19059	-0.15022	-0.22502	0.22197	-0.046816	-0.15316	-0.008669	-0.046816	0.031938	-0.008669	0	0	0	-0.12795	0.031517	0.034408	-0.13469	0.036681	0.15342	-0.13995	-0.081019	0.043928
988	9.4299	-0.1047	0.00083345	0.1636	-0.15131	-0.23194	0.18973	-0.15014	-0.22537	0.22116	-0.046816	-0.15316	-0.008669	-0.046816	0.031938	-0.008669	0	0	0	-0.12797	0.031599	0.034467	-0.1346	0.036666	0.15348	-0.14005	-0.080928	0.043889
989	9.4395	-0.10468	0.00077901	0.16362	-0.15135	-0.23216	0.18896	-0.15007	-0.22568	0.22044	-0.046816	-0.15316	-0.008669	-0.046816	0.031938	-0.008669	0	0	0	-0.12799	0.031674	0.034518	-0.13452	0.036652	0.15354	-0.14013	-0.080844	0.043851
990	9.449	-0.10466	0.00073073	0.16364	-0.15138	-0.23235	0.18829	-0.15	-0.22595	0.21981	-0.046816	-0.15316	-0.008669	-0.046816	0.031938	-0.008669	0	0	0	-0.128	0.03174	0.034563	-0.13445	0.036641	0.15358	-0.14022	-0.080769	0.043816
991	9.4586	-0.10465	0.00068869	0.16365	-0.1514	-0.23251	0.18773	-0.14993	-0.22619	0.21928	-0.046816	-0.15316	-0.008669	-0.046816	0.031938	-0.008669	0	0	0	-0.12802	0.031797	0.034601	-0.13439	0.036631	0.15362	-0.1403	-0.080702	0.043782
992	9.4682	-0.10464	0.00065299	0.16366	-0.15141	-0.23265	0.18728	-0.14986	-0.22638	0.21885	-0.046816	-0.15316	-0.008669	-0.046816	0.031938	-0.008669	0	0	0	-0.12803	0.031846	0.034631	-0.13434	0.036623	0.15365	-0.14037	-0.080645	0.043751
993	9.4777	-0.10464	0.00062373	0.16366	-0.1514	-0.23276	0.18693	-0.14979	-0.22654	0.21852	-0.046816	-0.15316	-0.008669	-0.046816	0.031938	-0.008669	0	0	0	-0.12805	0.031886	0.034654	-0.13431	0.036617	0.15368	-0.14044	-0.080597	0.043722
994	9.4873	-0.10464	0.00060099	0.16366	-0.15139	-0.23285	0.1867	-0.14973	-0.22666	0.2183	-0.046816	-0.15316	-0.008669	-0.046816	0.031938	-0.008669	0	0	0	-0.12806	0.031917	0.034669	-0.13428	0.036613	0.15369	-0.1405	-0.080559	0.043695
995	9.4968	-0.10464	0.00058488	0.16364	-0.15136	-0.23291	0.18659	-0.14966	-0.22673	0.21819	-0.046816	-0.15316	-0.008669	-0.046816	0.031938	-0.008669	0	0	0	-0.12808	0.031938	0.034676	-0.13426	0.036611	0.15369	-0.14056	-0.080531	0.04367
996	9.5064	-0.10464	0.00057392	0.16363	-0.15133	-0.23294	0.18657	-0.1496	-0.22678	0.21817	-0.046816	-0.15316	-0.008669	-0.046816	0.031938	-0.008669	0	0	0	-0.12809	0.031952	0.034676	-0.13426	0.036611	0.15369	-0.14062	-0.080511	0.043646
